<svg xmlns="http://www.w3.org/2000/svg" xmlns:xlink="http://www.w3.org/1999/xlink" viewBox="0 0 1366 767"><defs><style>.cls-1{fill:url(#linear-gradient);}</style><linearGradient id="linear-gradient" x1="434.31" y1="814.25" x2="940.29" y2="-62.13" gradientUnits="userSpaceOnUse"><stop offset="0" stop-color="#3fa9f5" stop-opacity="0.2"/><stop offset="0.04" stop-color="#3aa5f7" stop-opacity="0.32"/><stop offset="0.11" stop-color="#33a0f9" stop-opacity="0.48"/><stop offset="0.18" stop-color="#2e9cfa" stop-opacity="0.62"/><stop offset="0.26" stop-color="#2998fc" stop-opacity="0.74"/><stop offset="0.35" stop-color="#2595fd" stop-opacity="0.83"/><stop offset="0.45" stop-color="#2293fe" stop-opacity="0.91"/><stop offset="0.56" stop-color="#2091ff" stop-opacity="0.96"/><stop offset="0.7" stop-color="#1e90ff" stop-opacity="0.99"/><stop offset="0.97" stop-color="#1e90ff"/></linearGradient></defs><title>background</title><g id="Layer_2" data-name="Layer 2"><g id="Layer_1-2" data-name="Layer 1"><path class="cls-1" d="M1035,98C716,98,683,0,683,0H0V563.5c38.31-43.64,99-68.39,163.82-60.79,37.71,4.42,65.67,28.35,102.68,20.83,19.09-3.87,39.37-4.18,58.8-1.91,28.92,3.39,51.57,17.18,77.19,28.91,25.46,11.65,38.05.2,63.4-4.23a196.67,196.67,0,0,1,56.77-1.54c38.11,4.46,68.6,31.38,105.6,23.11a194.73,194.73,0,0,1,64.85-3.14A197,197,0,0,1,752,581.16c25.26,11.57,42.74,21.4,71.6,16.87,22.27-3.5,44.46-12.78,66.85-10.16,96.3,11.29,167.18,89.9,164.76,179.13H1366V218S1354,98,1035,98Z"/></g></g></svg>