<svg xmlns="http://www.w3.org/2000/svg" xmlns:xlink="http://www.w3.org/1999/xlink" viewBox="0 0 251.82 262.91"><defs><style>.cls-1{fill:url(#linear-gradient);}</style><linearGradient id="linear-gradient" x1="219.06" y1="224.61" x2="26.01" y2="31.56" gradientUnits="userSpaceOnUse"><stop offset="0" stop-color="#3fa9f5" stop-opacity="0.2"/><stop offset="0.02" stop-color="#4aa0f6" stop-opacity="0.21"/><stop offset="0.14" stop-color="#8571f9" stop-opacity="0.28"/><stop offset="0.28" stop-color="#b44dfc" stop-opacity="0.33"/><stop offset="0.43" stop-color="#d533fe" stop-opacity="0.37"/><stop offset="0.6" stop-color="#e824ff" stop-opacity="0.39"/><stop offset="0.84" stop-color="#ee1fff" stop-opacity="0.4"/></linearGradient></defs><title>bottom1</title><g id="Layer_2" data-name="Layer 2"><g id="Layer_1-2" data-name="Layer 1"><path class="cls-1" d="M212.51,226.35,128.72,259.9a42.13,42.13,0,0,1-41.69-6L16.08,198.11A42.14,42.14,0,0,1,.43,159L13.27,69.67a42.14,42.14,0,0,1,26-33.11L123.1,3a42.13,42.13,0,0,1,41.69,6l71,55.79a42.15,42.15,0,0,1,15.65,39.1l-12.84,89.34A42.13,42.13,0,0,1,212.51,226.35Z"/></g></g></svg>